<svg width="1000" height="1000" viewBox="0 0 1000 1000" fill="none" xmlns="http://www.w3.org/2000/svg">
<rect width="1000" height="1000" rx="500" fill="#6A63F6"/>
<path d="M182.4 501.68C182.4 420.987 202.573 360.013 242.92 318.76C283.72 277.507 336.08 256.88 400 256.88C464.373 256.88 516.28 277.28 555.72 318.08C595.16 358.427 614.88 419.627 614.88 501.68C614.88 564.693 602.64 615.467 578.16 654C553.68 692.533 520.133 719.053 477.52 733.56L549.6 783.2C552.32 785.013 553.68 788.187 553.68 792.72C553.68 797.707 548.467 806.773 538.04 819.92C528.067 833.067 515.827 843.04 501.32 849.84C487.267 857.093 476.613 860.72 469.36 860.72C462.107 860.72 456.213 858.227 451.68 853.24L352.4 743.08C301.627 733.56 260.6 708.173 229.32 666.92C198.04 625.213 182.4 570.133 182.4 501.68ZM398.64 387.44C376.88 387.44 358.52 397.413 343.56 417.36C329.053 437.307 321.8 465.413 321.8 501.68C321.8 537.493 328.827 565.147 342.88 584.64C356.933 603.68 375.293 613.2 397.96 613.2C421.08 613.2 439.667 603.453 453.72 583.96C468.227 564.467 475.48 536.587 475.48 500.32C475.48 464.053 468 436.173 453.04 416.68C438.533 397.187 420.4 387.44 398.64 387.44ZM784.917 596.2C784.917 598.92 768.597 600.28 735.957 600.28C703.771 600.28 687.677 599.147 687.677 596.88L674.077 261.64C674.077 258.013 694.704 256.2 735.957 256.2C777.664 256.2 798.517 257.787 798.517 260.96L784.917 596.2ZM672.717 637C672.717 633.827 693.571 632.24 735.277 632.24C777.437 632.24 798.517 633.6 798.517 636.32V734.24C798.517 738.773 777.437 741.04 735.277 741.04C693.571 741.04 672.717 739.68 672.717 736.96V637Z" fill="white"/>
</svg>
